<?xml version="1.0" encoding="utf-8"?>
<!-- Generator: Adobe Illustrator 25.0.1, SVG Export Plug-In . SVG Version: 6.00 Build 0)  -->
<svg version="1.1" xmlns="http://www.w3.org/2000/svg" xmlns:xlink="http://www.w3.org/1999/xlink" x="0px" y="0px" width="750px"
	 height="750px" viewBox="0 0 750 750" style="enable-background:new 0 0 750 750;" xml:space="preserve">
<style type="text/css">
	.st0{fill:#FFFFFF;}
	.st1{fill:#E74C3C;}
	.st2{fill:none;stroke:#E74C3C;stroke-width:2;stroke-linecap:round;stroke-linejoin:round;stroke-miterlimit:10;}
	.st3{opacity:0.98;}
	.st4{fill:none;stroke:#E74C3C;stroke-width:2;stroke-linecap:round;stroke-linejoin:round;}
	.st5{fill:none;stroke:#E74C3C;stroke-width:2;stroke-linecap:round;stroke-linejoin:round;stroke-dasharray:3.0968,5.1613;}
	.st6{fill:none;stroke:#E74C3C;stroke-width:2;stroke-linecap:round;stroke-linejoin:round;stroke-dasharray:3.0017,5.0029;}
	.st7{fill:none;stroke:#E74C3C;stroke-width:2;stroke-linecap:round;stroke-linejoin:round;stroke-dasharray:2.941,4.9017;}
	.st8{fill:none;stroke:#E74C3C;stroke-width:2;stroke-linecap:round;stroke-linejoin:round;stroke-dasharray:3.0996,5.1659;}
	
		.st9{fill:none;stroke:#E74C3C;stroke-width:2;stroke-linecap:round;stroke-linejoin:round;stroke-miterlimit:10;stroke-dasharray:3,5;}
	.st10{fill:none;stroke:#E74C3C;stroke-width:2;stroke-linecap:round;stroke-linejoin:round;stroke-dasharray:3.2351,5.3918;}
	.st11{fill:none;stroke:#E74C3C;stroke-width:2;stroke-linecap:round;stroke-linejoin:round;stroke-dasharray:2.9937,4.9895;}
	.st12{fill:none;stroke:#E74C3C;stroke-width:2;stroke-linecap:round;stroke-linejoin:round;stroke-dasharray:2.6627,4.4378;}
	.st13{fill:none;stroke:#E74C3C;stroke-width:2;stroke-linecap:round;stroke-linejoin:round;stroke-dasharray:2.8211,4.7019;}
	.st14{fill:none;stroke:#E74C3C;stroke-width:2;stroke-linecap:round;stroke-linejoin:round;stroke-dasharray:3.3501,5.5834;}
	.st15{fill:none;stroke:#E74C3C;stroke-width:2;stroke-linecap:round;stroke-linejoin:round;stroke-dasharray:2.5206,4.2011;}
	.st16{fill:none;stroke:#E74C3C;stroke-width:2.75;stroke-linecap:round;stroke-linejoin:round;}
	.st17{fill:none;stroke:#E74C3C;stroke-width:2.75;stroke-linecap:round;stroke-linejoin:round;stroke-dasharray:4.5221,6.3309;}
	.st18{fill:none;stroke:#E74C3C;stroke-width:2.75;stroke-linecap:round;stroke-linejoin:round;stroke-dasharray:4.9549,6.9369;}
	.st19{fill:none;stroke:#E74C3C;stroke-width:2.75;stroke-linecap:round;stroke-linejoin:round;stroke-dasharray:2.7472,3.8461;}
	.st20{fill:none;stroke:#E74C3C;stroke-width:2.75;stroke-linecap:round;stroke-linejoin:round;stroke-dasharray:5.0339,7.0475;}
	.st21{fill:none;stroke:#E74C3C;stroke-width:2.75;stroke-linecap:round;stroke-linejoin:round;stroke-dasharray:4.9767,6.9674;}
	.st22{fill:none;stroke:#E74C3C;stroke-width:2.75;stroke-linecap:round;stroke-linejoin:round;stroke-dasharray:4.9746,6.9644;}
	.st23{fill:none;stroke:#E74C3C;stroke-width:2.75;stroke-linecap:round;stroke-linejoin:round;stroke-dasharray:4.9909,6.9873;}
	.st24{fill:none;stroke:#E74C3C;stroke-width:2.75;stroke-linecap:round;stroke-linejoin:round;stroke-dasharray:3.6609,5.1253;}
	.st25{fill:none;stroke:#E74C3C;stroke-width:2.75;stroke-linecap:round;stroke-linejoin:round;stroke-dasharray:4.9942,6.9919;}
	.st26{fill:none;stroke:#E74C3C;stroke-width:2.75;stroke-linecap:round;stroke-linejoin:round;stroke-dasharray:5.0664,7.0929;}
	.st27{fill:none;stroke:#E74C3C;stroke-width:2.75;stroke-linecap:round;stroke-linejoin:round;stroke-dasharray:4.9963,6.9949;}
	.st28{fill:none;stroke:#E74C3C;stroke-width:2.75;stroke-linecap:round;stroke-linejoin:round;stroke-dasharray:5.7371,8.0319;}
	.st29{fill:none;stroke:#E74C3C;stroke-width:2.75;stroke-linecap:round;stroke-linejoin:round;stroke-dasharray:4.9279,6.899;}
	.st30{fill:none;stroke:#E74C3C;stroke-width:2.5;stroke-linecap:round;stroke-linejoin:round;}
	.st31{fill:none;stroke:#E74C3C;stroke-width:2.5;stroke-linecap:round;stroke-linejoin:round;stroke-dasharray:3.0001,5.0001;}
	.st32{fill:none;stroke:#E74C3C;stroke-width:2.5;stroke-linecap:round;stroke-linejoin:round;stroke-dasharray:3.0835,5.1392;}
	.st33{fill:none;stroke:#E74C3C;stroke-width:2.5;stroke-linecap:round;stroke-linejoin:round;stroke-dasharray:3.0113,5.0188;}
	.st34{fill:none;stroke:#E74C3C;stroke-width:2.5;stroke-linecap:round;stroke-linejoin:round;stroke-dasharray:2.9557,4.9262;}
	.st35{fill:none;stroke:#E74C3C;stroke-width:2.5;stroke-linecap:round;stroke-linejoin:round;stroke-dasharray:3.0818,5.1363;}
	.st36{fill:none;stroke:#E74C3C;stroke-width:2.5;stroke-linecap:round;stroke-linejoin:round;stroke-dasharray:2.9001,4.8335;}
	.st37{fill:none;stroke:#E74C3C;stroke-width:2.5;stroke-linecap:round;stroke-linejoin:round;stroke-dasharray:3.1854,5.3089;}
	.st38{fill:none;stroke:#E74C3C;stroke-width:2.5;stroke-linecap:round;stroke-linejoin:round;stroke-dasharray:3.018,5.03;}
	.st39{fill:none;stroke:#E74C3C;stroke-width:2.5;stroke-linecap:round;stroke-linejoin:round;stroke-dasharray:2.9776,4.9627;}
	.st40{fill:none;stroke:#E74C3C;stroke-width:2.5;stroke-linecap:round;stroke-linejoin:round;stroke-dasharray:3.0197,5.0329;}
	.st41{fill:none;stroke:#E74C3C;stroke-width:2.5;stroke-linecap:round;stroke-linejoin:round;stroke-dasharray:2.9936,4.9894;}
	.st42{fill:none;}
	.st43{fill:none;stroke:#E74C3C;stroke-width:2.5;stroke-linecap:round;stroke-linejoin:round;stroke-dasharray:2.9967,4.9944;}
	.st44{fill:none;stroke:#E74C3C;stroke-width:2.5;stroke-linecap:round;stroke-linejoin:round;stroke-dasharray:3.0498,5.0831;}
	.st45{fill:none;stroke:#E74C3C;stroke-width:2.5;stroke-linecap:round;stroke-linejoin:round;stroke-dasharray:3.0251,5.0419;}
	.st46{fill:none;stroke:#E74C3C;stroke-width:2.5;stroke-linecap:round;stroke-linejoin:round;stroke-dasharray:2.859,4.765;}
	.st47{fill:none;stroke:#E74C3C;stroke-width:2.5;stroke-linecap:round;stroke-linejoin:round;stroke-dasharray:2.9474,4.9123;}
	.st48{fill:none;stroke:#E74C3C;stroke-width:2.5;stroke-linecap:round;stroke-linejoin:round;stroke-dasharray:2.9572,4.9287;}
	.st49{fill:none;stroke:#E74C3C;stroke-width:2.5;stroke-linecap:round;stroke-linejoin:round;stroke-dasharray:3.0105,5.0174;}
	.st50{fill:none;stroke:#E74C3C;stroke-width:2.5;stroke-linecap:round;stroke-linejoin:round;stroke-dasharray:3.0206,5.0343;}
	.st51{fill:none;stroke:#E74C3C;stroke-width:2.5;stroke-linecap:round;stroke-linejoin:round;stroke-dasharray:3.0856,5.1427;}
	.st52{fill:none;stroke:#E74C3C;stroke-width:2.5;stroke-linecap:round;stroke-linejoin:round;stroke-dasharray:3.0724,5.1206;}
	.st53{fill:none;stroke:#E74C3C;stroke-width:2.5;stroke-linecap:round;stroke-linejoin:round;stroke-dasharray:2.9416,4.9027;}
	.st54{fill:none;stroke:#E74C3C;stroke-width:2.5;stroke-linecap:round;stroke-linejoin:round;stroke-dasharray:2.9041,4.8402;}
	.st55{fill:none;stroke:#E74C3C;stroke-width:2.5;stroke-linecap:round;stroke-linejoin:round;stroke-dasharray:2.9946,4.991;}
	.st56{fill:none;stroke:#E74C3C;stroke-width:2.5;stroke-linecap:round;stroke-linejoin:round;stroke-dasharray:2.9489,4.9149;}
	.st57{fill:none;stroke:#E74C3C;stroke-width:2.5;stroke-linecap:round;stroke-linejoin:round;stroke-dasharray:3.0518,5.0863;}
	.st58{fill:none;stroke:#E74C3C;stroke-width:2.5;stroke-linecap:round;stroke-linejoin:round;stroke-dasharray:3.0186,5.031;}
	.st59{fill:none;stroke:#E74C3C;stroke-width:2.5;stroke-linecap:round;stroke-linejoin:round;stroke-dasharray:2.9664,4.9441;}
	.st60{fill:none;stroke:#E74C3C;stroke-width:2.5;stroke-linecap:round;stroke-linejoin:round;stroke-dasharray:2.7631,4.6052;}
	.st61{fill:none;stroke:#E74C3C;stroke-width:2.5;stroke-linecap:round;stroke-linejoin:round;stroke-dasharray:3.0261,5.0436;}
	.st62{fill:none;stroke:#E74C3C;stroke-width:2.5;stroke-linecap:round;stroke-linejoin:round;stroke-dasharray:2.9845,4.9741;}
	.st63{fill:none;stroke:#E74C3C;stroke-width:2.5;stroke-linecap:round;stroke-linejoin:round;stroke-dasharray:2.9241,4.8735;}
	.st64{fill:none;stroke:#E74C3C;stroke-width:2.5;stroke-linecap:round;stroke-linejoin:round;stroke-dasharray:2.9347,4.8912;}
	.st65{fill:none;stroke:#E74C3C;stroke-width:2.5;stroke-linecap:round;stroke-linejoin:round;stroke-dasharray:2.9934,4.989;}
	.st66{fill:none;stroke:#E74C3C;stroke-width:2.5;stroke-linecap:round;stroke-linejoin:round;stroke-dasharray:2.9631,4.9385;}
	.st67{fill:none;stroke:#E74C3C;stroke-width:2.5;stroke-linecap:round;stroke-linejoin:round;stroke-dasharray:3.0359,5.0598;}
	.st68{fill:none;stroke:#E74C3C;stroke-width:2.5;stroke-linecap:round;stroke-linejoin:round;stroke-dasharray:2.9779,4.9632;}
	.st69{fill:none;stroke:#E74C3C;stroke-width:2.5;stroke-linecap:round;stroke-linejoin:round;stroke-dasharray:2.9726,4.9544;}
	.st70{fill:none;stroke:#E74C3C;stroke-width:2.5;stroke-linecap:round;stroke-linejoin:round;stroke-dasharray:2.9941,4.9902;}
	.st71{fill:none;stroke:#E74C3C;stroke-width:2.5;stroke-linecap:round;stroke-linejoin:round;stroke-dasharray:3.007,5.0116;}
	.st72{fill:none;stroke:#E74C3C;stroke-width:2.5;stroke-linecap:round;stroke-linejoin:round;stroke-dasharray:2.9749,4.9582;}
	.st73{fill:none;stroke:#E74C3C;stroke-width:2.5;stroke-linecap:round;stroke-linejoin:round;stroke-dasharray:2.8257,4.7095;}
	.st74{fill:none;stroke:#E74C3C;stroke-width:2.5;stroke-linecap:round;stroke-linejoin:round;stroke-dasharray:2.8363,4.7272;}
	.st75{fill:none;stroke:#E74C3C;stroke-width:2.75;stroke-linecap:round;stroke-linejoin:round;stroke-miterlimit:10;}
	.st76{fill:none;stroke:#E74C3C;stroke-width:3.5;stroke-linecap:round;stroke-linejoin:round;stroke-miterlimit:10;}
</style>
<g id="FILL-BACKGROUND">
	<rect class="st0" width="750" height="750"/>
</g>
<g id="N-TEXT">
</g>
<g id="N-DIMENSIONS">
</g>
<g id="_x32_D_x24_AG-DIAGRAM">
</g>
<g id="_x32_D_x24_AG-DETAILS-DIAGRAM">
</g>
<g id="_x32_D_x24_AG-SPORTS">
	<g id="POLYLINE_10_">
		<line class="st75" x1="375.02" y1="516.95" x2="375.02" y2="460.15"/>
	</g>
	<g id="POLYLINE_9_">
		<line class="st75" x1="375.02" y1="289.73" x2="375.02" y2="232.92"/>
	</g>
	<g id="POLYLINE_8_">
		<path class="st75" d="M90.99,398.61h-8.66v-47.34h8.66c-0.01-3.42-0.12-40.97,0.18-43.27c0.27-4.03,0.86-8.11,1.73-12.05
			c3.79-17.23,13.46-33.1,27.03-44.37c9.06-7.56,19.83-13.1,31.26-16.06c4.55-1.18,9.26-1.98,13.95-2.35
			c1.77-0.13,3.65-0.23,5.42-0.24c0.26-0.47,407.51,0.33,408-0.01c0,0,0.89,0.01,0.89,0.01l0.9,0.01c1.44,0.04,3.09,0.11,4.53,0.23
			c3.72,0.29,7.49,0.86,11.14,1.67c24.21,5.33,44.87,21.87,55.38,44.33c3.46,7.35,5.8,15.26,6.9,23.31
			c0.27,2.09,0.51,4.32,0.62,6.43c0.08,1.13,0.09,2.47,0.12,3.6c0,0,0,0.89,0,0.89v123.08c0.01,11.78-2.63,23.57-7.64,34.23
			c-10.36,22.15-30.63,38.57-54.44,44.11c-3.65,0.85-7.42,1.47-11.16,1.8c-1.78,0.15-3.67,0.27-5.44,0.31c0,0-0.9,0.01-0.9,0.01
			l-0.89,0c-0.9,0-407.18,0.01-408,0c-1.76-0.03-3.68-0.1-5.43-0.24c-4.69-0.37-9.4-1.16-13.95-2.35
			c-11.43-2.97-22.2-8.5-31.26-16.06c-13.83-11.47-23.59-27.71-27.24-45.3c-0.76-3.64-1.28-7.4-1.53-11.11
			C90.71,440.38,91.14,401.45,90.99,398.61z"/>
	</g>
	<g id="POLYLINE_7_">
		<path class="st75" d="M90.99,313.4c-0.04-32.33,19.52-61.75,49.36-74.22c8.52-3.57,17.72-5.68,26.95-6.15
			c1.23-0.08,2.93-0.09,4.17-0.11c0,0,407.11,0,407.11,0l1.39,0.01l1.39,0.04c1.72,0.08,3.83,0.19,5.54,0.38
			c4.09,0.43,8.31,1.19,12.28,2.25c9.83,2.6,19.21,7.11,27.37,13.18c7.79,5.78,14.56,13.04,19.79,21.21
			c6.24,9.73,10.36,20.87,11.94,32.32c0.43,3.15,0.71,6.51,0.75,9.69c0,0,0.01,1.39,0.01,1.39v123.08
			c-0.02,0.66-0.01,2.11-0.05,2.78c-0.06,1.22-0.13,2.94-0.25,4.16c-0.84,9.67-3.46,19.24-7.67,27.98
			c-7.8,16.3-21.29,29.79-37.59,37.59c-5.4,2.6-11.17,4.62-17.01,5.95c-3.57,0.81-7.33,1.41-10.97,1.72
			c-1.23,0.13-2.93,0.19-4.16,0.25c-0.68,0.05-2.09,0.03-2.78,0.05c0,0-407.11,0-407.11,0l-1.39-0.01l-1.39-0.04l-1.39-0.06
			c-18.97-0.93-37.5-8.89-51.25-22.01c-12.11-11.46-20.5-26.79-23.62-43.17c-0.68-3.59-1.15-7.38-1.34-11.02
			c-0.1-1.24-0.08-2.93-0.11-4.17c0,0,0-37.87,0-37.87h-8.66c0.01,2.92-0.09,40.4,0.12,42.48c0.24,4.55,0.84,9.25,1.79,13.72
			c3.97,19.09,14.44,36.75,29.28,49.4c9.73,8.33,21.32,14.54,33.64,18.03c5.39,1.52,11.04,2.56,16.62,3.05
			c1.94,0.15,4.2,0.3,6.14,0.32c0.59,0.64,407.69-0.43,408.65,0.01c0,0,1.54-0.01,1.54-0.01c1.9-0.05,4.24-0.14,6.14-0.32
			c4.02-0.35,8.21-1,12.15-1.9c26.3-5.95,48.82-23.9,60.47-48.22c5.79-12,8.84-25.35,8.83-38.67c0,0,0-123.08,0-123.08
			c-0.02-0.74-0.01-2.33-0.05-3.08c-0.12-2.99-0.37-6.23-0.8-9.19c-1.27-9.12-3.98-18.11-7.98-26.4
			c-11.42-23.84-33.3-41.6-58.97-47.87c-2.41-0.58-5.09-1.14-7.54-1.52c0,0-1.52-0.22-1.52-0.22c-2.98-0.4-6.19-0.7-9.19-0.8
			c-0.76-0.05-2.31-0.03-3.08-0.05c-2.07,0.41-406.85-0.31-408.64,0.01c0,0-1.54,0.04-1.54,0.04l-1.54,0.07l-1.54,0.09
			c-6.1,0.42-12.27,1.5-18.16,3.17c-12.32,3.49-23.91,9.7-33.64,18.03c-14.84,12.64-25.31,30.31-29.28,49.4
			c-0.82,3.96-1.42,8.15-1.69,12.18c-0.49,2.73-0.09,40.18-0.21,44.02h8.66V313.4z"/>
	</g>
</g>
<g id="_x32_D_x24_AG-OUTLINE">
	<g id="POLYLINE_13_">
		<path class="st76" d="M90.99,313.4c-0.03-32.94,20.21-62.72,50.85-74.82c5.99-2.37,12.31-4.03,18.7-4.91
			c3.6-0.49,7.29-0.75,10.92-0.74c104.73,0.24,308.73-0.46,413.42,0.25c4.36,0.35,8.76,1.06,13.01,2.11
			c10.09,2.49,19.71,6.98,28.11,13.11c7.82,5.71,14.62,12.86,19.92,20.97c6.33,9.67,10.55,20.75,12.24,32.19
			c0.49,3.31,0.79,6.72,0.86,10.06c-0.02,0.45,0.04,1.34,0.02,1.79c0,0,0,123.08,0,123.08l0,0.89l-0.01,0.9
			c-0.05,1.45-0.1,3.08-0.23,4.53c-0.73,9.31-3.11,18.51-6.97,27c-7.79,17.24-21.88,31.51-39.02,39.51
			c-5.64,2.65-11.62,4.66-17.72,5.93c-3.94,0.82-8,1.36-12.02,1.59c-106.53,0.19-310.5,0.34-417-0.06
			c-18.55-1.2-36.56-9.1-50.01-21.94c-12.02-11.37-20.37-26.54-23.54-42.78c-0.71-3.63-1.19-7.39-1.4-11.08
			c-0.08-1.13-0.09-2.47-0.12-3.6c0,0,0-0.89,0-0.89v-37.87h-8.66c0.05,4.01-0.17,40.81,0.2,43.85c0.3,4.46,0.95,8.98,1.92,13.34
			c4.2,19.09,14.9,36.66,29.94,49.14c9.76,8.15,21.31,14.17,33.58,17.52c5.05,1.38,10.27,2.32,15.48,2.79
			c1.96,0.17,4.06,0.3,6.03,0.34c0,0,0.99,0.02,0.99,0.02l0.99,0.01h407.11c1.93-0.01,4.05-0.07,5.98-0.2
			c4.11-0.28,8.28-0.85,12.31-1.7c26.87-5.58,49.95-23.59,61.89-48.31c5.87-12.07,8.96-25.5,8.95-38.93c0,0,0-123.08,0-123.08
			c-0.03-0.87,0-2.1-0.05-2.97c-0.1-2.66-0.3-5.45-0.64-8.1c-1.16-9.27-3.8-18.39-7.78-26.85c-11.48-24.54-33.91-42.71-60.3-48.86
			c-3.71-0.87-7.55-1.52-11.34-1.9c-1.97-0.19-4.08-0.35-6.05-0.41c0,0-1-0.03-1-0.03l-0.99-0.02c-2.13-0.14-406.9,0.09-409.08,0
			c-1.94,0.03-4.07,0.11-6.01,0.27c-5.55,0.44-11.12,1.41-16.49,2.87c-12.27,3.34-23.82,9.37-33.58,17.52
			c-15.31,12.71-26.13,30.69-30.17,50.18c-0.84,4.03-1.42,8.2-1.7,12.31c-0.51,2.53-0.05,40.19-0.2,43.85h8.66V313.4z"/>
	</g>
</g>
</svg>
